<?xml version="1.0" encoding="utf-8"?>
<svg viewBox="0 0 402.25333 86.226669" xmlns="http://www.w3.org/2000/svg">
  <rect x="0" y="0" width="402.25333" height="86.226669" style="fill: rgb(80, 0, 0);"/>
  <g id="g8" transform="matrix(1.333333, 0, 0, -1.333333, 5, 81.226669)">
    <g id="g10" transform="scale(0.1)">
      <path d="m 676.711,23.875 h -12.539 v 531.848 h 12.539 V 23.875" style="fill:#ffffff;fill-opacity:1;fill-rule:nonzero;stroke:none" id="path12"/>
      <path d="m 867.891,499.297 h -11.668 v 61.375 h -20.996 v 10.012 h 53.66 v -10.012 h -20.996 v -61.375" style="fill:#ffffff;fill-opacity:1;fill-rule:nonzero;stroke:none" id="path14"/>
      <path d="m 945.203,499.297 h -40.379 v 71.387 h 40.379 v -9.864 h -28.711 v -19.433 h 26.906 v -9.766 h -26.906 v -22.414 h 28.711 v -9.91" style="fill:#ffffff;fill-opacity:1;fill-rule:nonzero;stroke:none" id="path16"/>
      <path d="m 1018.22,499.297 h -13.43 l -17.864,29.199 -18.02,-29.199 h -12.5 l 23.684,37.012 -22.168,34.375 h 12.984 l 16.504,-27.004 16.51,27.004 h 12.59 l -22.311,-34.571 24.021,-36.816" style="fill:#ffffff;fill-opacity:1;fill-rule:nonzero;stroke:none" id="path18"/>
      <path d="m 1066.92,529.18 -6.69,19.433 c -0.48,1.297 -1.16,3.348 -2.03,6.153 -0.86,2.8 -1.45,4.851 -1.77,6.152 -0.88,-4.004 -2.17,-8.379 -3.86,-13.137 l -6.45,-18.601 z m 10.21,-29.883 -7.13,19.824 h -27.29 l -6.99,-19.824 h -12.3 l 26.71,71.68 h 12.69 l 26.71,-71.68 h -12.4" style="fill:#ffffff;fill-opacity:1;fill-rule:nonzero;stroke:none" id="path20"/>
      <path d="m 1145.12,518.68 c 0,-6.348 -2.3,-11.328 -6.89,-14.942 -4.59,-3.613 -10.92,-5.418 -18.99,-5.418 -8.08,0 -14.68,1.25 -19.83,3.758 v 11.035 c 3.26,-1.531 6.72,-2.734 10.38,-3.613 3.67,-0.879 7.08,-1.316 10.23,-1.316 4.62,0 8.03,0.879 10.23,2.636 2.19,1.758 3.29,4.121 3.29,7.078 0,2.668 -1,4.934 -3.02,6.79 -2.02,1.855 -6.18,4.05 -12.5,6.589 -6.52,2.637 -11.11,5.645 -13.77,9.036 -2.67,3.386 -4.01,7.449 -4.01,12.207 0,5.957 2.12,10.644 6.35,14.062 4.23,3.418 9.91,5.125 17.04,5.125 6.84,0 13.65,-1.492 20.41,-4.492 l -3.71,-9.52 c -6.35,2.664 -12.01,4.004 -16.99,4.004 -3.78,0 -6.64,-0.82 -8.59,-2.461 -1.96,-1.652 -2.93,-3.82 -2.93,-6.523 0,-1.856 0.39,-3.438 1.17,-4.766 0.78,-1.308 2.07,-2.558 3.86,-3.73 1.78,-1.172 5.01,-2.715 9.66,-4.641 5.25,-2.176 9.09,-4.219 11.53,-6.101 2.44,-1.887 4.23,-4.024 5.37,-6.399 1.14,-2.371 1.71,-5.176 1.71,-8.398" style="fill:#ffffff;fill-opacity:1;fill-rule:nonzero;stroke:none" id="path22"/>
      <path d="m 1228.99,529.18 -6.69,19.433 c -0.48,1.297 -1.16,3.348 -2.03,6.153 -0.86,2.8 -1.45,4.851 -1.77,6.152 -0.88,-4.004 -2.17,-8.379 -3.86,-13.137 l -6.45,-18.601 z m 10.21,-29.883 -7.13,19.824 h -27.29 l -6.99,-19.824 h -12.3 l 26.71,71.68 h 12.69 l 26.71,-71.68 h -12.4" style="fill:#ffffff;fill-opacity:1;fill-rule:nonzero;stroke:none" id="path24"/>
      <path d="m 1278.62,555.301 c 0,-2.051 0.55,-3.985 1.63,-5.809 1.1,-1.828 2.62,-3.762 4.57,-5.812 3.69,2.082 6.26,4.035 7.74,5.832 1.48,1.816 2.23,3.836 2.23,6.082 0,2.121 -0.71,3.808 -2.13,5.078 -1.41,1.269 -3.29,1.906 -5.64,1.906 -2.57,0 -4.62,-0.664 -6.12,-1.973 -1.52,-1.328 -2.28,-3.085 -2.28,-5.304 z m 7.28,-47.117 c 5.96,0 11.05,1.738 15.28,5.222 l -18.7,18.41 c -3.45,-2.218 -5.83,-4.289 -7.13,-6.23 -1.3,-1.934 -1.95,-4.141 -1.95,-6.613 0,-3.192 1.13,-5.789 3.4,-7.782 2.25,-2.011 5.29,-3.007 9.1,-3.007 z m -24.61,10.007 c 0,4.27 1.04,7.981 3.12,11.164 2.08,3.165 5.84,6.317 11.28,9.442 -3.09,3.613 -5.2,6.672 -6.31,9.152 -1.14,2.5 -1.69,5.078 -1.69,7.742 0,4.954 1.76,8.86 5.3,11.719 3.52,2.863 8.27,4.297 14.23,4.297 5.76,0 10.28,-1.394 13.57,-4.168 3.29,-2.793 4.93,-6.543 4.93,-11.262 0,-3.711 -1.09,-7.078 -3.3,-10.105 -2.19,-3.027 -5.86,-6.055 -11,-9.082 l 16.89,-16.309 c 2.64,3.485 4.83,8.594 6.59,15.332 h 11.82 c -2.28,-9.25 -5.93,-16.777 -10.94,-22.609 l 14.7,-14.207 h -14.8 l -7.27,7.078 c -3.32,-2.664 -6.87,-4.676 -10.62,-6.023 -3.77,-1.36 -7.92,-2.032 -12.48,-2.032 -7.49,0 -13.36,1.778 -17.62,5.321 -4.27,3.547 -6.4,8.398 -6.4,14.55" style="fill:#ffffff;fill-opacity:1;fill-rule:nonzero;stroke:none" id="path26"/>
      <path d="m 1375.91,499.297 -20.7,59.617 h -0.4 c 0.56,-8.855 0.83,-17.156 0.83,-24.902 v -34.715 h -10.59 v 71.387 h 16.45 l 19.83,-56.789 h 0.29 l 20.41,56.789 h 16.51 v -71.387 h -11.24 v 35.301 c 0,3.547 0.09,8.175 0.28,13.867 0.17,5.695 0.33,9.152 0.46,10.351 h -0.39 l -21.44,-59.519 h -10.3" style="fill:#ffffff;fill-opacity:1;fill-rule:nonzero;stroke:none" id="path28"/>
      <path d="m 1529.27,570.684 v -46.192 c 0,-5.273 -1.14,-9.883 -3.39,-13.847 -2.27,-3.946 -5.54,-6.993 -9.83,-9.122 -4.27,-2.14 -9.39,-3.203 -15.35,-3.203 -8.85,0 -15.74,2.344 -20.65,7.032 -4.91,4.687 -7.37,11.132 -7.37,19.336 v 45.996 h 11.71 v -45.168 c 0,-5.887 1.37,-10.235 4.11,-13.036 2.73,-2.804 6.93,-4.199 12.59,-4.199 11.01,0 16.51,5.782 16.51,17.332 v 45.071 h 11.67" style="fill:#ffffff;fill-opacity:1;fill-rule:nonzero;stroke:none" id="path30"/>
      <path d="m 1612,499.297 h -14.3 l -35.11,56.883 h -0.39 l 0.24,-3.172 c 0.46,-6.055 0.69,-11.594 0.69,-16.602 v -37.109 h -10.6 v 71.387 h 14.16 l 35.01,-56.594 h 0.29 c -0.07,0.754 -0.19,3.476 -0.39,8.176 -0.19,4.707 -0.29,8.379 -0.29,11.015 v 37.403 H 1612 v -71.387" style="fill:#ffffff;fill-opacity:1;fill-rule:nonzero;stroke:none" id="path32"/>
      <path d="m 1635.85,499.297 v 71.387 h 11.67 v -71.387 h -11.67" style="fill:#ffffff;fill-opacity:1;fill-rule:nonzero;stroke:none" id="path34"/>
      <path d="m 1712.04,570.684 h 12.11 l -25,-71.387 h -12.3 l -24.91,71.387 h 12.02 l 14.89,-44.387 c 0.78,-2.117 1.61,-4.844 2.49,-8.172 0.88,-3.34 1.44,-5.82 1.71,-7.453 0.42,2.473 1.07,5.344 1.95,8.594 0.88,3.254 1.59,5.664 2.15,7.226 l 14.89,44.192" style="fill:#ffffff;fill-opacity:1;fill-rule:nonzero;stroke:none" id="path36"/>
      <path d="m 1778.96,499.297 h -40.39 v 71.387 h 40.39 v -9.864 h -28.72 v -19.433 h 26.91 v -9.766 h -26.91 v -22.414 h 28.72 v -9.91" style="fill:#ffffff;fill-opacity:1;fill-rule:nonzero;stroke:none" id="path38"/>
      <path d="m 1811.05,537.48 h 8.11 c 5.44,0 9.38,1.004 11.82,3.028 2.44,2.019 3.66,5.008 3.66,8.984 0,4.031 -1.32,6.934 -3.96,8.692 -2.63,1.757 -6.61,2.636 -11.91,2.636 h -7.72 z m 0,-9.667 v -28.516 h -11.67 v 71.387 h 20.17 c 9.21,0 16.04,-1.731 20.46,-5.176 4.42,-3.449 6.64,-8.664 6.64,-15.625 0,-8.887 -4.62,-15.215 -13.87,-18.996 l 20.17,-31.59 h -13.28 l -17.09,28.516 h -11.53" style="fill:#ffffff;fill-opacity:1;fill-rule:nonzero;stroke:none" id="path40"/>
      <path d="m 1909.46,518.68 c 0,-6.348 -2.29,-11.328 -6.88,-14.942 -4.59,-3.613 -10.92,-5.418 -19,-5.418 -8.07,0 -14.67,1.25 -19.82,3.758 v 11.035 c 3.25,-1.531 6.72,-2.734 10.37,-3.613 3.67,-0.879 7.08,-1.316 10.24,-1.316 4.61,0 8.02,0.879 10.23,2.636 2.19,1.758 3.29,4.121 3.29,7.078 0,2.668 -1.01,4.934 -3.03,6.79 -2.02,1.855 -6.18,4.05 -12.5,6.589 -6.51,2.637 -11.1,5.645 -13.77,9.036 -2.66,3.386 -4,7.449 -4,12.207 0,5.957 2.12,10.644 6.35,14.062 4.23,3.418 9.91,5.125 17.04,5.125 6.83,0 13.64,-1.492 20.41,-4.492 l -3.71,-9.52 c -6.35,2.664 -12.01,4.004 -16.99,4.004 -3.78,0 -6.65,-0.82 -8.6,-2.461 -1.95,-1.652 -2.93,-3.82 -2.93,-6.523 0,-1.856 0.39,-3.438 1.17,-4.766 0.79,-1.308 2.07,-2.558 3.86,-3.73 1.79,-1.172 5.01,-2.715 9.67,-4.641 5.24,-2.176 9.08,-4.219 11.52,-6.101 2.44,-1.887 4.23,-4.024 5.37,-6.399 1.15,-2.371 1.71,-5.176 1.71,-8.398" style="fill:#ffffff;fill-opacity:1;fill-rule:nonzero;stroke:none" id="path42"/>
      <path d="m 1928.28,499.297 v 71.387 h 11.67 v -71.387 h -11.67" style="fill:#ffffff;fill-opacity:1;fill-rule:nonzero;stroke:none" id="path44"/>
      <path d="m 1988.46,499.297 h -11.68 v 61.375 h -20.99 v 10.012 h 53.67 v -10.012 h -21 v -61.375" style="fill:#ffffff;fill-opacity:1;fill-rule:nonzero;stroke:none" id="path46"/>
      <path d="m 2045.55,538.113 16.9,32.571 h 12.69 l -23.77,-43.704 v -27.683 h -11.72 v 27.293 l -23.69,44.094 h 12.7 l 16.89,-32.571" style="fill:#ffffff;fill-opacity:1;fill-rule:nonzero;stroke:none" id="path48"/>
      <path d="m 940.488,344.676 c 0,17.121 -4.297,30.019 -12.883,38.703 -8.589,8.68 -21.355,13.016 -38.296,13.016 h -22.18 V 291.512 h 18.586 c 18.203,0 31.883,4.472 41.031,13.429 9.16,8.946 13.742,22.188 13.742,39.735 z m 16.172,0.539 c 0,-21.68 -5.89,-38.242 -17.644,-49.707 -11.77,-11.465 -28.696,-17.199 -50.786,-17.199 h -36.375 v 131.289 h 40.235 c 20.41,0 36.277,-5.653 47.598,-16.973 11.308,-11.316 16.972,-27.117 16.972,-47.41" style="fill:#ffffff;fill-opacity:1;fill-rule:nonzero;stroke:none" id="path50"/>
      <path d="m 1017.91,366.043 c -7.9,0 -14.2,-2.578 -18.894,-7.723 -4.707,-5.148 -7.473,-12.265 -8.313,-21.367 h 51.457 c 0,9.395 -2.1,16.59 -6.29,21.59 -4.19,5 -10.18,7.5 -17.96,7.5 z m 4.04,-89.531 c -14.55,0 -26.02,4.433 -34.438,13.293 -8.41,8.855 -12.617,21.16 -12.617,36.902 0,15.871 3.914,28.469 11.726,37.813 7.813,9.335 18.299,14.003 31.479,14.003 12.32,0 22.09,-4.05 29.26,-12.168 7.19,-8.105 10.78,-18.808 10.78,-32.097 v -9.434 h -67.796 c 0.301,-11.554 3.219,-20.324 8.758,-26.308 5.538,-5.989 13.328,-8.985 23.388,-8.985 10.6,0 21.07,2.215 31.44,6.649 v -13.289 c -5.28,-2.278 -10.26,-3.907 -14.96,-4.895 -4.7,-0.984 -10.38,-1.484 -17.02,-1.484" style="fill:#ffffff;fill-opacity:1;fill-rule:nonzero;stroke:none" id="path52"/>
      <path d="m 1123.9,365.867 c -10.06,0 -17.34,-2.781 -21.83,-8.347 -4.49,-5.579 -6.8,-14.434 -6.91,-26.582 v -3.333 c 0,-13.828 2.3,-23.718 6.91,-29.675 4.61,-5.957 12,-8.938 22.18,-8.938 8.5,0 15.16,3.449 19.98,10.332 4.82,6.887 7.23,16.367 7.23,28.469 0,12.266 -2.41,21.687 -7.23,28.242 -4.82,6.551 -11.59,9.832 -20.33,9.832 z m 2.14,-89.355 c -6.4,0 -12.25,1.183 -17.55,3.547 -5.3,2.363 -9.74,6.004 -13.33,10.918 h -1.08 c 0.71,-5.754 1.08,-11.204 1.08,-16.348 v -40.5 h -14.92 v 142.598 h 12.13 l 2.06,-13.465 h 0.73 c 3.82,5.39 8.29,9.277 13.38,11.679 5.08,2.391 10.92,3.582 17.5,3.582 13.06,0 23.13,-4.453 30.23,-13.378 7.09,-8.915 10.63,-21.434 10.63,-37.54 0,-16.16 -3.6,-28.718 -10.82,-37.664 -7.21,-8.957 -17.22,-13.429 -30.04,-13.429" style="fill:#ffffff;fill-opacity:1;fill-rule:nonzero;stroke:none" id="path54"/>
      <path d="m 1216.48,288.816 c 9.28,0 16.58,2.539 21.87,7.637 5.3,5.09 7.95,12.207 7.95,21.367 v 8.887 l -14.91,-0.625 c -11.85,-0.418 -20.4,-2.254 -25.64,-5.516 -5.23,-3.273 -7.86,-8.339 -7.86,-15.226 0,-5.391 1.63,-9.492 4.9,-12.305 3.26,-2.812 7.83,-4.219 13.69,-4.219 z m 33.68,-10.507 -2.96,14.015 h -0.73 c -4.9,-6.172 -9.8,-10.351 -14.67,-12.531 -4.89,-2.188 -10.98,-3.281 -18.28,-3.281 -9.76,0 -17.41,2.519 -22.94,7.551 -5.54,5.019 -8.31,12.175 -8.31,21.453 0,19.882 15.89,30.293 47.68,31.25 l 16.71,0.547 v 6.105 c 0,7.723 -1.66,13.426 -4.99,17.109 -3.32,3.68 -8.63,5.516 -15.94,5.516 -8.2,0 -17.48,-2.508 -27.84,-7.539 l -4.58,11.406 c 4.85,2.629 10.17,4.699 15.95,6.192 5.77,1.496 11.56,2.246 17.37,2.246 11.74,0 20.43,-2.606 26.08,-7.813 5.67,-5.203 8.49,-13.562 8.49,-25.058 v -67.168 h -11.04" style="fill:#ffffff;fill-opacity:1;fill-rule:nonzero;stroke:none" id="path56"/>
      <path d="m 1333.51,378.523 c 4.37,0 8.29,-0.351 11.76,-1.074 l -2.07,-13.828 c -4.07,0.899 -7.65,1.348 -10.77,1.348 -7.96,0 -14.77,-3.231 -20.43,-9.696 -5.65,-6.464 -8.48,-14.523 -8.48,-24.16 v -52.804 h -14.92 v 98.418 h 12.31 l 1.71,-18.223 h 0.72 c 3.64,6.406 8.05,11.34 13.19,14.816 5.15,3.465 10.81,5.203 16.98,5.203" style="fill:#ffffff;fill-opacity:1;fill-rule:nonzero;stroke:none" id="path58"/>
      <path d="m 1392.17,288.816 c 2.62,0 5.17,0.196 7.62,0.586 2.47,0.383 4.41,0.793 5.84,1.211 v -11.406 c -1.61,-0.781 -3.99,-1.426 -7.13,-1.934 -3.15,-0.507 -5.98,-0.761 -8.49,-0.761 -19.03,0 -28.55,10.031 -28.55,30.09 v 58.543 h -14.11 v 7.187 l 14.11,6.191 6.27,21.016 h 8.63 v -22.812 h 28.55 v -11.582 h -28.55 v -57.918 c 0,-5.93 1.4,-10.481 4.22,-13.653 2.82,-3.176 6.68,-4.758 11.59,-4.758" style="fill:#ffffff;fill-opacity:1;fill-rule:nonzero;stroke:none" id="path60"/>
      <path d="m 1547.44,278.309 v 64.023 c 0,7.852 -1.68,13.731 -5.03,17.648 -3.36,3.926 -8.56,5.887 -15.62,5.887 -9.29,0 -16.14,-2.664 -20.57,-7.996 -4.43,-5.324 -6.65,-13.527 -6.65,-24.601 v -54.961 h -14.9 v 64.023 c 0,7.852 -1.68,13.731 -5.03,17.648 -3.35,3.926 -8.6,5.887 -15.71,5.887 -9.35,0 -16.19,-2.801 -20.52,-8.398 -4.35,-5.594 -6.52,-14.774 -6.52,-27.528 v -51.632 h -14.91 v 98.418 h 12.13 l 2.42,-13.465 h 0.73 c 2.81,4.785 6.77,8.535 11.89,11.23 5.12,2.684 10.85,4.031 17.2,4.031 15.39,0 25.44,-5.566 30.17,-16.699 h 0.72 c 2.94,5.149 7.18,9.219 12.75,12.219 5.57,2.988 11.91,4.48 19.04,4.48 11.14,0 19.48,-2.851 25.01,-8.574 5.54,-5.711 8.3,-14.863 8.3,-27.429 v -64.211 h -14.9" style="fill:#ffffff;fill-opacity:1;fill-rule:nonzero;stroke:none" id="path62"/>
      <path d="m 1627.29,366.043 c -7.91,0 -14.2,-2.578 -18.9,-7.723 -4.71,-5.148 -7.47,-12.265 -8.31,-21.367 h 51.45 c 0,9.395 -2.1,16.59 -6.29,21.59 -4.19,5 -10.17,7.5 -17.95,7.5 z m 4.04,-89.531 c -14.55,0 -26.03,4.433 -34.45,13.293 -8.4,8.855 -12.61,21.16 -12.61,36.902 0,15.871 3.91,28.469 11.73,37.813 7.81,9.335 18.3,14.003 31.47,14.003 12.32,0 22.09,-4.05 29.27,-12.168 7.19,-8.105 10.78,-18.808 10.78,-32.097 v -9.434 h -67.8 c 0.3,-11.554 3.22,-20.324 8.76,-26.308 5.53,-5.989 13.33,-8.985 23.39,-8.985 10.59,0 21.07,2.215 31.43,6.649 v -13.289 c -5.27,-2.278 -10.25,-3.907 -14.95,-4.895 -4.71,-0.984 -10.38,-1.484 -17.02,-1.484" style="fill:#ffffff;fill-opacity:1;fill-rule:nonzero;stroke:none" id="path64"/>
      <path d="m 1756.97,278.309 v 63.671 c 0,8.02 -1.82,14.004 -5.48,17.961 -3.65,3.946 -9.36,5.926 -17.14,5.926 -10.31,0 -17.85,-2.781 -22.63,-8.347 -4.8,-5.579 -7.19,-14.766 -7.19,-27.579 v -51.632 h -14.91 v 98.418 h 12.13 l 2.42,-13.465 h 0.72 c 3.05,4.851 7.34,8.601 12.84,11.269 5.51,2.664 11.65,3.992 18.41,3.992 11.86,0 20.77,-2.851 26.76,-8.574 5.99,-5.711 8.98,-14.863 8.98,-27.429 v -64.211 h -14.91" style="fill:#ffffff;fill-opacity:1;fill-rule:nonzero;stroke:none" id="path66"/>
      <path d="m 1830.99,288.816 c 2.62,0 5.17,0.196 7.62,0.586 2.46,0.383 4.41,0.793 5.84,1.211 v -11.406 c -1.61,-0.781 -3.99,-1.426 -7.14,-1.934 -3.14,-0.507 -5.97,-0.761 -8.48,-0.761 -19.04,0 -28.56,10.031 -28.56,30.09 v 58.543 h -14.1 v 7.187 l 14.1,6.191 6.28,21.016 h 8.63 v -22.812 h 28.55 v -11.582 h -28.55 v -57.918 c 0,-5.93 1.4,-10.481 4.21,-13.653 2.83,-3.176 6.68,-4.758 11.6,-4.758" style="fill:#ffffff;fill-opacity:1;fill-rule:nonzero;stroke:none" id="path68"/>
      <path d="m 1915.23,327.605 c 0,-12.566 2.52,-22.148 7.55,-28.73 5.03,-6.59 12.42,-9.883 22.19,-9.883 9.74,0 17.16,3.281 22.22,9.836 5.06,6.551 7.58,16.152 7.58,28.777 0,12.52 -2.52,22.024 -7.58,28.516 -5.06,6.496 -12.54,9.746 -22.4,9.746 -9.77,0 -17.13,-3.203 -22.1,-9.609 -4.98,-6.406 -7.46,-15.957 -7.46,-28.653 z m 74.99,0 c 0,-16.042 -4.04,-28.562 -12.13,-37.578 -8.09,-9.011 -19.24,-13.515 -33.5,-13.515 -8.78,0 -16.6,2.07 -23.43,6.203 -6.82,4.129 -12.09,10.047 -15.8,17.773 -3.72,7.723 -5.57,16.766 -5.57,27.117 0,16.047 4.01,28.547 12.04,37.5 8.01,8.946 19.15,13.418 33.39,13.418 13.77,0 24.73,-4.578 32.83,-13.738 8.11,-9.16 12.17,-21.555 12.17,-37.18" style="fill:#ffffff;fill-opacity:1;fill-rule:nonzero;stroke:none" id="path70"/>
      <path d="m 2057.41,365.145 h -25.06 v -86.836 h -14.9 v 86.836 h -17.6 v 6.738 l 17.6,5.39 v 5.481 c 0,24.18 10.56,36.277 31.7,36.277 5.19,0 11.3,-1.054 18.32,-3.144 l -3.87,-11.942 c -5.74,1.856 -10.67,2.782 -14.73,2.782 -5.62,0 -9.78,-1.875 -12.48,-5.614 -2.69,-3.742 -4.04,-9.746 -4.04,-18.008 v -6.378 h 25.06 v -11.582" style="fill:#ffffff;fill-opacity:1;fill-rule:nonzero;stroke:none" id="path72"/>
      <path d="m 2174.99,397.832 c -14.44,0 -25.82,-4.805 -34.18,-14.406 -8.34,-9.61 -12.52,-22.774 -12.52,-39.473 0,-17.187 4.02,-30.457 12.07,-39.824 8.04,-9.375 19.53,-14.051 34.43,-14.051 9.16,0 19.61,1.641 31.35,4.93 v -13.379 c -9.1,-3.406 -20.33,-5.117 -33.67,-5.117 -19.34,0 -34.26,5.871 -44.77,17.597 -10.51,11.739 -15.76,28.411 -15.76,50.02 0,13.535 2.52,25.391 7.58,35.566 5.06,10.176 12.36,18.02 21.91,23.528 9.55,5.507 20.8,8.261 33.73,8.261 13.77,0 25.8,-2.511 36.09,-7.539 l -6.46,-13.117 c -9.94,4.668 -19.88,7.004 -29.8,7.004" style="fill:#ffffff;fill-opacity:1;fill-rule:nonzero;stroke:none" id="path74"/>
      <path d="m 2239.2,327.605 c 0,-12.566 2.52,-22.148 7.54,-28.73 5.04,-6.59 12.43,-9.883 22.19,-9.883 9.75,0 17.17,3.281 22.23,9.836 5.06,6.551 7.58,16.152 7.58,28.777 0,12.52 -2.52,22.024 -7.58,28.516 -5.06,6.496 -12.54,9.746 -22.41,9.746 -9.76,0 -17.12,-3.203 -22.1,-9.609 -4.97,-6.406 -7.45,-15.957 -7.45,-28.653 z m 74.98,0 c 0,-16.042 -4.04,-28.562 -12.12,-37.578 -8.09,-9.011 -19.24,-13.515 -33.5,-13.515 -8.79,0 -16.6,2.07 -23.44,6.203 -6.81,4.129 -12.09,10.047 -15.8,17.773 -3.71,7.723 -5.57,16.766 -5.57,27.117 0,16.047 4.01,28.547 12.04,37.5 8.02,8.946 19.16,13.418 33.39,13.418 13.77,0 24.73,-4.578 32.84,-13.738 8.1,-9.16 12.16,-21.555 12.16,-37.18" style="fill:#ffffff;fill-opacity:1;fill-rule:nonzero;stroke:none" id="path76"/>
      <path d="m 2462.47,278.309 v 64.023 c 0,7.852 -1.68,13.731 -5.04,17.648 -3.36,3.926 -8.56,5.887 -15.63,5.887 -9.28,0 -16.13,-2.664 -20.56,-7.996 -4.44,-5.324 -6.65,-13.527 -6.65,-24.601 v -54.961 h -14.9 v 64.023 c 0,7.852 -1.68,13.731 -5.04,17.648 -3.34,3.926 -8.59,5.887 -15.7,5.887 -9.36,0 -16.19,-2.801 -20.53,-8.398 -4.33,-5.594 -6.5,-14.774 -6.5,-27.528 V 278.309 H 2337 v 98.418 h 12.13 l 2.42,-13.465 h 0.72 c 2.81,4.785 6.78,8.535 11.9,11.23 5.11,2.684 10.85,4.031 17.2,4.031 15.39,0 25.43,-5.566 30.18,-16.699 h 0.7 c 2.95,5.149 7.19,9.219 12.75,12.219 5.57,2.988 11.92,4.48 19.05,4.48 11.13,0 19.47,-2.851 25.02,-8.574 5.52,-5.711 8.3,-14.863 8.3,-27.429 v -64.211 h -14.9" style="fill:#ffffff;fill-opacity:1;fill-rule:nonzero;stroke:none" id="path78"/>
      <path d="m 2548.42,365.867 c -10.06,0 -17.34,-2.781 -21.83,-8.347 -4.5,-5.579 -6.8,-14.434 -6.92,-26.582 v -3.333 c 0,-13.828 2.31,-23.718 6.92,-29.675 4.61,-5.957 12.01,-8.938 22.18,-8.938 8.5,0 15.16,3.449 19.98,10.332 4.83,6.887 7.23,16.367 7.23,28.469 0,12.266 -2.4,21.687 -7.23,28.242 -4.82,6.551 -11.6,9.832 -20.33,9.832 z m 2.15,-89.355 c -6.4,0 -12.26,1.183 -17.56,3.547 -5.29,2.363 -9.74,6.004 -13.34,10.918 h -1.07 c 0.72,-5.754 1.07,-11.204 1.07,-16.348 v -40.5 h -14.9 v 142.598 h 12.13 l 2.05,-13.465 h 0.72 c 3.83,5.39 8.3,9.277 13.38,11.679 5.1,2.391 10.94,3.582 17.52,3.582 13.05,0 23.13,-4.453 30.22,-13.378 7.09,-8.915 10.64,-21.434 10.64,-37.54 0,-16.16 -3.61,-28.718 -10.82,-37.664 -7.23,-8.957 -17.23,-13.429 -30.04,-13.429" style="fill:#ffffff;fill-opacity:1;fill-rule:nonzero;stroke:none" id="path80"/>
      <path d="m 2628.17,376.727 v -63.848 c 0,-8.016 1.82,-14.004 5.47,-17.957 3.65,-3.945 9.37,-5.93 17.15,-5.93 10.31,0 17.83,2.813 22.59,8.449 4.75,5.625 7.13,14.813 7.13,27.567 v 51.719 h 14.91 v -98.418 h -12.29 l -2.17,13.203 h -0.8 c -3.05,-4.852 -7.28,-8.563 -12.71,-11.141 -5.41,-2.57 -11.61,-3.859 -18.54,-3.859 -11.97,0 -20.94,2.843 -26.89,8.535 -5.96,5.683 -8.95,14.785 -8.95,27.297 v 64.383 h 15.1" style="fill:#ffffff;fill-opacity:1;fill-rule:nonzero;stroke:none" id="path82"/>
      <path d="m 2755.51,288.816 c 2.64,0 5.18,0.196 7.64,0.586 2.46,0.383 4.39,0.793 5.84,1.211 v -11.406 c -1.62,-0.781 -4,-1.426 -7.15,-1.934 -3.14,-0.507 -5.98,-0.761 -8.48,-0.761 -19.04,0 -28.55,10.031 -28.55,30.09 v 58.543 h -14.1 v 7.187 l 14.1,6.191 6.27,21.016 h 8.63 v -22.812 h 28.56 v -11.582 h -28.56 v -57.918 c 0,-5.93 1.41,-10.481 4.22,-13.653 2.81,-3.176 6.68,-4.758 11.58,-4.758" style="fill:#ffffff;fill-opacity:1;fill-rule:nonzero;stroke:none" id="path84"/>
      <path d="m 2822.88,366.043 c -7.89,0 -14.2,-2.578 -18.89,-7.723 -4.71,-5.148 -7.48,-12.265 -8.32,-21.367 h 51.46 c 0,9.395 -2.11,16.59 -6.29,21.59 -4.19,5 -10.17,7.5 -17.96,7.5 z m 4.04,-89.531 c -14.55,0 -26.02,4.433 -34.43,13.293 -8.42,8.855 -12.62,21.16 -12.62,36.902 0,15.871 3.9,28.469 11.72,37.813 7.81,9.335 18.3,14.003 31.48,14.003 12.33,0 22.09,-4.05 29.26,-12.168 7.19,-8.105 10.78,-18.808 10.78,-32.097 v -9.434 h -67.79 c 0.29,-11.554 3.22,-20.324 8.75,-26.308 5.54,-5.989 13.34,-8.985 23.4,-8.985 10.58,0 21.07,2.215 31.42,6.649 v -13.289 c -5.27,-2.278 -10.25,-3.907 -14.94,-4.895 -4.71,-0.984 -10.39,-1.484 -17.03,-1.484" style="fill:#ffffff;fill-opacity:1;fill-rule:nonzero;stroke:none" id="path86"/>
      <path d="m 2930.12,378.523 c 4.38,0 8.28,-0.351 11.76,-1.074 l -2.07,-13.828 c -4.06,0.899 -7.66,1.348 -10.76,1.348 -7.97,0 -14.79,-3.231 -20.43,-9.696 -5.67,-6.464 -8.5,-14.523 -8.5,-24.16 v -52.804 h -14.9 v 98.418 h 12.3 l 1.7,-18.223 h 0.73 c 3.65,6.406 8.04,11.34 13.2,14.816 5.14,3.465 10.8,5.203 16.97,5.203" style="fill:#ffffff;fill-opacity:1;fill-rule:nonzero;stroke:none" id="path88"/>
      <path d="m 925.945,79.1094 c 0,-11.5508 -4.187,-20.5664 -12.578,-27.0313 -8.379,-6.4648 -19.754,-9.6953 -34.121,-9.6953 -15.562,0 -27.535,2 -35.918,6.0156 V 63.125 c 5.383,-2.2773 11.25,-4.0742 17.602,-5.3828 6.343,-1.3164 12.633,-1.9805 18.855,-1.9805 10.176,0 17.844,1.9336 22.988,5.7891 5.149,3.8672 7.723,9.2383 7.723,16.125 0,4.5508 -0.906,8.2695 -2.73,11.1797 -1.828,2.9023 -4.883,5.5781 -9.161,8.039 -4.289,2.4493 -10.792,5.2345 -19.535,8.3475 -12.215,4.367 -20.945,9.551 -26.179,15.539 -5.235,5.985 -7.864,13.797 -7.864,23.438 0,10.117 3.813,18.164 11.411,24.16 7.605,5.984 17.664,8.973 30.171,8.973 13.047,0 25.063,-2.391 36.008,-7.188 l -4.758,-13.281 c -10.839,4.543 -21.367,6.816 -31.609,6.816 -8.074,0 -14.395,-1.726 -18.945,-5.203 -4.551,-3.476 -6.825,-8.293 -6.825,-14.453 0,-4.551 0.836,-8.281 2.516,-11.184 1.672,-2.91 4.504,-5.566 8.488,-7.996 3.977,-2.422 10.071,-5.097 18.274,-8.039 13.765,-4.902 23.238,-10.176 28.418,-15.801 5.183,-5.6246 7.769,-12.9292 7.769,-21.9136" style="fill:#ffffff;fill-opacity:1;fill-rule:nonzero;stroke:none" id="path90"/>
      <path d="m 986.57,42.3828 c -14.246,0 -25.269,4.3828 -33.086,13.1524 -7.808,8.7695 -11.726,21.1836 -11.726,37.2265 0,16.4653 3.972,29.1793 11.902,38.1643 7.934,8.984 19.231,13.469 33.899,13.469 4.726,0 9.461,-0.508 14.191,-1.524 4.72,-1.016 8.45,-2.219 11.13,-3.594 l -4.58,-12.656 c -3.29,1.309 -6.88,2.402 -10.773,3.27 -3.894,0.871 -7.332,1.308 -10.332,1.308 -19.988,0 -29.988,-12.754 -29.988,-38.2615 0,-12.0898 2.441,-21.3672 7.324,-27.832 4.871,-6.4727 12.102,-9.7071 21.68,-9.7071 8.203,0 16.619,1.7696 25.239,5.3047 V 47.5 c -6.59,-3.4102 -14.88,-5.1172 -24.88,-5.1172" style="fill:#ffffff;fill-opacity:1;fill-rule:nonzero;stroke:none" id="path92"/>
      <path d="m 1046.4,44.1797 h -14.92 v 98.4183 h 14.92 z m -16.17,125.0973 c 0,3.407 0.83,5.907 2.51,7.489 1.68,1.593 3.77,2.382 6.29,2.382 2.4,0 4.46,-0.808 6.19,-2.421 1.74,-1.622 2.61,-4.102 2.61,-7.45 0,-3.359 -0.87,-5.859 -2.61,-7.5 -1.73,-1.652 -3.79,-2.472 -6.19,-2.472 -2.52,0 -4.61,0.82 -6.29,2.472 -1.68,1.641 -2.51,4.141 -2.51,7.5" style="fill:#ffffff;fill-opacity:1;fill-rule:nonzero;stroke:none" id="path94"/>
      <path d="m 1112.23,131.914 c -7.9,0 -14.2,-2.578 -18.9,-7.726 -4.71,-5.145 -7.47,-12.266 -8.31,-21.368 h 51.45 c 0,9.395 -2.09,16.594 -6.28,21.594 -4.19,5 -10.18,7.5 -17.96,7.5 z m 4.04,-89.5312 c -14.55,0 -26.03,4.4336 -34.44,13.2891 -8.41,8.8594 -12.62,21.164 -12.62,36.9062 0,15.8669 3.92,28.4649 11.73,37.8129 7.81,9.336 18.3,14.004 31.47,14.004 12.33,0 22.09,-4.055 29.27,-12.168 7.19,-8.106 10.78,-18.809 10.78,-32.102 v -9.4336 h -67.8 c 0.3,-11.5508 3.22,-20.3203 8.76,-26.3086 5.54,-5.9844 13.33,-8.9844 23.39,-8.9844 10.59,0 21.07,2.2188 31.43,6.6524 v -13.293 c -5.27,-2.2734 -10.25,-3.9062 -14.95,-4.8906 -4.71,-0.9883 -10.38,-1.4844 -17.02,-1.4844" style="fill:#ffffff;fill-opacity:1;fill-rule:nonzero;stroke:none" id="path96"/>
      <path d="m 1241.91,44.1797 v 63.6723 c 0,8.015 -1.82,14.003 -5.47,17.957 -3.66,3.945 -9.37,5.929 -17.15,5.929 -10.31,0 -17.84,-2.785 -22.63,-8.351 -4.79,-5.574 -7.19,-14.766 -7.19,-27.5784 V 44.1797 h -14.91 v 98.4183 h 12.13 l 2.42,-13.469 h 0.72 c 3.05,4.855 7.34,8.605 12.85,11.269 5.5,2.668 11.64,3.997 18.4,3.997 11.86,0 20.78,-2.852 26.76,-8.575 5.99,-5.715 8.99,-14.863 8.99,-27.433 V 44.1797 h -14.92" style="fill:#ffffff;fill-opacity:1;fill-rule:nonzero;stroke:none" id="path98"/>
      <path d="m 1323.47,42.3828 c -14.25,0 -25.28,4.3828 -33.09,13.1524 -7.81,8.7695 -11.73,21.1836 -11.73,37.2265 0,16.4653 3.98,29.1793 11.91,38.1643 7.93,8.984 19.23,13.469 33.89,13.469 4.73,0 9.47,-0.508 14.19,-1.524 4.73,-1.016 8.45,-2.219 11.14,-3.594 l -4.58,-12.656 c -3.3,1.309 -6.89,2.402 -10.78,3.27 -3.89,0.871 -7.33,1.308 -10.33,1.308 -19.99,0 -29.99,-12.754 -29.99,-38.2615 0,-12.0898 2.44,-21.3672 7.33,-27.832 4.87,-6.4727 12.1,-9.7071 21.68,-9.7071 8.2,0 16.62,1.7696 25.23,5.3047 V 47.5 c -6.58,-3.4102 -14.87,-5.1172 -24.87,-5.1172" style="fill:#ffffff;fill-opacity:1;fill-rule:nonzero;stroke:none" id="path100"/>
      <path d="m 1405.92,131.914 c -7.9,0 -14.2,-2.578 -18.9,-7.726 -4.71,-5.145 -7.47,-12.266 -8.31,-21.368 h 51.46 c 0,9.395 -2.1,16.594 -6.29,21.594 -4.19,5 -10.18,7.5 -17.96,7.5 z m 4.04,-89.5312 c -14.55,0 -26.02,4.4336 -34.44,13.2891 -8.41,8.8594 -12.62,21.164 -12.62,36.9062 0,15.8669 3.92,28.4649 11.73,37.8129 7.81,9.336 18.3,14.004 31.47,14.004 12.33,0 22.09,-4.055 29.27,-12.168 7.19,-8.106 10.78,-18.809 10.78,-32.102 v -9.4336 h -67.8 c 0.3,-11.5508 3.22,-20.3203 8.76,-26.3086 5.54,-5.9844 13.33,-8.9844 23.39,-8.9844 10.59,0 21.07,2.2188 31.43,6.6524 v -13.293 c -5.27,-2.2734 -10.25,-3.9062 -14.95,-4.8906 -4.7,-0.9883 -10.38,-1.4844 -17.02,-1.4844" style="fill:#ffffff;fill-opacity:1;fill-rule:nonzero;stroke:none" id="path102"/>
      <path d="m 1534.08,149.336 c 0,-4.133 1.08,-8.066 3.23,-11.809 2.16,-3.738 5.84,-8.25 11.05,-13.515 7.72,4.492 13.1,8.633 16.12,12.441 3.02,3.801 4.53,8.184 4.53,13.156 0,4.61 -1.54,8.36 -4.62,11.27 -3.08,2.898 -7.2,4.355 -12.35,4.355 -5.33,0 -9.65,-1.437 -12.98,-4.316 -3.32,-2.871 -4.98,-6.73 -4.98,-11.582 z M 1548,55.7617 c 14.43,0 26.4,4.6094 35.93,13.8281 l -39.25,38.0742 c -6.64,-4.07 -11.35,-7.43 -14.1,-10.0976 -2.76,-2.6641 -4.79,-5.5273 -6.11,-8.5742 -1.32,-3.0547 -1.97,-6.5313 -1.97,-10.418 0,-7.0039 2.31,-12.5586 6.95,-16.6601 4.64,-4.1016 10.82,-6.1524 18.55,-6.1524 z m -40.95,22.4492 c 0,7.7852 2.08,14.668 6.24,20.6563 4.16,5.9848 11.63,12.0308 22.41,18.1448 -5.09,5.683 -8.55,9.988 -10.38,12.929 -1.82,2.93 -3.27,5.985 -4.35,9.161 -1.08,3.171 -1.61,6.464 -1.61,9.871 0,8.984 2.93,15.988 8.79,21.015 5.87,5.032 14.05,7.551 24.52,7.551 9.7,0 17.33,-2.512 22.9,-7.5 5.57,-5 8.36,-11.965 8.36,-20.879 0,-6.406 -2.05,-12.324 -6.12,-17.734 -4.07,-5.422 -10.8,-10.918 -20.2,-16.485 l 36.55,-35.109 c 3.35,3.711 6.03,8.0664 8.04,13.0664 2,4.9922 3.69,10.4606 5.07,16.3866 h 15.08 c -4.07,-17.1287 -10.2,-30.117 -18.4,-38.9725 l 26.85,-26.1328 h -20.57 l -16.61,15.9844 c -7.07,-6.3477 -14.24,-10.8985 -21.55,-13.6524 -7.3,-2.7539 -15.45,-4.1289 -24.42,-4.1289 -12.88,0 -22.86,3.1719 -29.95,9.5195 -7.1,6.3477 -10.65,15.1172 -10.65,26.3086" style="fill:#ffffff;fill-opacity:1;fill-rule:nonzero;stroke:none" id="path104"/>
      <path d="m 1763.55,44.1797 h -73.19 V 175.469 h 73.19 v -13.567 h -57.92 v -42.293 h 54.42 v -13.468 h -54.42 V 57.832 h 57.92 V 44.1797" style="fill:#ffffff;fill-opacity:1;fill-rule:nonzero;stroke:none" id="path106"/>
      <path d="m 1854.44,44.1797 v 63.6723 c 0,8.015 -1.82,14.003 -5.48,17.957 -3.65,3.945 -9.36,5.929 -17.14,5.929 -10.31,0 -17.85,-2.785 -22.63,-8.351 -4.8,-5.574 -7.19,-14.766 -7.19,-27.5784 V 44.1797 h -14.91 v 98.4183 h 12.13 l 2.42,-13.469 h 0.72 c 3.05,4.855 7.34,8.605 12.85,11.269 5.5,2.668 11.64,3.997 18.4,3.997 11.86,0 20.77,-2.852 26.76,-8.575 5.99,-5.715 8.99,-14.863 8.99,-27.433 V 44.1797 h -14.92" style="fill:#ffffff;fill-opacity:1;fill-rule:nonzero;stroke:none" id="path108"/>
      <path d="m 1906.82,111.082 c 0,-6.883 1.94,-12.0976 5.83,-15.625 3.89,-3.5351 9.3,-5.3007 16.26,-5.3007 14.53,0 21.82,7.0585 21.82,21.1917 0,14.785 -7.37,22.187 -22.1,22.187 -7,0 -12.39,-1.887 -16.16,-5.664 -3.77,-3.769 -5.65,-9.367 -5.65,-16.789 z m -8.09,-83.4257 c 0,-5.3321 2.25,-9.3672 6.74,-12.1211 4.48,-2.7539 10.92,-4.1289 19.31,-4.1289 12.51,0 21.77,1.8632 27.78,5.6054 6.02,3.75 9.03,8.8164 9.03,15.2227 0,5.332 -1.64,9.0234 -4.94,11.0937 -3.29,2.0625 -9.5,3.0977 -18.58,3.0977 h -17.87 c -6.77,0 -12.05,-1.6211 -15.82,-4.8555 -3.76,-3.2305 -5.65,-7.8711 -5.65,-13.914 z m 78.48,114.9417 v -9.426 l -18.22,-2.156 c 1.68,-2.09 3.16,-4.836 4.49,-8.215 1.31,-3.387 1.97,-7.196 1.97,-11.453 0,-9.641 -3.3,-17.3246 -9.88,-23.0785 -6.58,-5.7422 -15.62,-8.6211 -27.11,-8.6211 -2.94,0 -5.7,0.2422 -8.26,0.7227 -6.35,-3.3594 -9.53,-7.5781 -9.53,-12.668 0,-2.6953 1.11,-4.6758 3.32,-5.9648 2.22,-1.2891 6.02,-1.9336 11.41,-1.9336 h 17.42 c 10.66,0 18.85,-2.2461 24.57,-6.7383 5.7,-4.4844 8.57,-11.0156 8.57,-19.5703 0,-10.8984 -4.37,-19.2109 -13.1,-24.92188 C 1954.11,2.85938 1941.35,0 1924.59,0 c -12.87,0 -22.79,2.39063 -29.77,7.17578 -6.97,4.79692 -10.45,11.56252 -10.45,20.30472 0,5.9843 1.91,11.1601 5.74,15.5273 3.83,4.375 9.22,7.332 16.16,8.8945 -2.51,1.1329 -4.62,2.9024 -6.33,5.293 -1.71,2.3945 -2.56,5.1875 -2.56,8.3594 0,3.5859 0.96,6.7305 2.87,9.4258 1.92,2.6953 4.95,5.3008 9.08,7.8125 -5.09,2.0976 -9.24,5.6523 -12.45,10.6836 -3.2,5.0273 -4.8,10.7814 -4.8,17.2464 0,10.769 3.23,19.082 9.71,24.922 6.46,5.828 15.62,8.75 27.47,8.75 5.16,0 9.79,-0.598 13.93,-1.797 h 34.02" style="fill:#ffffff;fill-opacity:1;fill-rule:nonzero;stroke:none" id="path110"/>
      <path d="m 2009.01,44.1797 h -14.9 v 98.4183 h 14.9 z m -16.15,125.0973 c 0,3.407 0.82,5.907 2.5,7.489 1.68,1.593 3.77,2.382 6.29,2.382 2.4,0 4.45,-0.808 6.19,-2.421 1.74,-1.622 2.61,-4.102 2.61,-7.45 0,-3.359 -0.87,-5.859 -2.61,-7.5 -1.74,-1.652 -3.79,-2.472 -6.19,-2.472 -2.52,0 -4.61,0.82 -6.29,2.472 -1.68,1.641 -2.5,4.141 -2.5,7.5" style="fill:#ffffff;fill-opacity:1;fill-rule:nonzero;stroke:none" id="path112"/>
      <path d="m 2104.67,44.1797 v 63.6723 c 0,8.015 -1.83,14.003 -5.49,17.957 -3.65,3.945 -9.35,5.929 -17.14,5.929 -10.3,0 -17.84,-2.785 -22.62,-8.351 -4.81,-5.574 -7.19,-14.766 -7.19,-27.5784 V 44.1797 h -14.92 v 98.4183 h 12.13 l 2.42,-13.469 h 0.72 c 3.05,4.855 7.35,8.605 12.85,11.269 5.51,2.668 11.65,3.997 18.4,3.997 11.86,0 20.78,-2.852 26.76,-8.575 6,-5.715 8.99,-14.863 8.99,-27.433 V 44.1797 h -14.91" style="fill:#ffffff;fill-opacity:1;fill-rule:nonzero;stroke:none" id="path114"/>
      <path d="m 2184.42,131.914 c -7.89,0 -14.2,-2.578 -18.89,-7.726 -4.7,-5.145 -7.48,-12.266 -8.32,-21.368 h 51.47 c 0,9.395 -2.11,16.594 -6.29,21.594 -4.2,5 -10.18,7.5 -17.97,7.5 z m 4.04,-89.5312 c -14.55,0 -26.01,4.4336 -34.43,13.2891 -8.42,8.8594 -12.62,21.164 -12.62,36.9062 0,15.8669 3.91,28.4649 11.72,37.8129 7.81,9.336 18.3,14.004 31.48,14.004 12.33,0 22.09,-4.055 29.26,-12.168 7.19,-8.106 10.78,-18.809 10.78,-32.102 v -9.4336 h -67.79 c 0.29,-11.5508 3.22,-20.3203 8.75,-26.3086 5.55,-5.9844 13.34,-8.9844 23.4,-8.9844 10.58,0 21.07,2.2188 31.42,6.6524 v -13.293 c -5.27,-2.2734 -10.25,-3.9062 -14.94,-4.8906 -4.7,-0.9883 -10.39,-1.4844 -17.03,-1.4844" style="fill:#ffffff;fill-opacity:1;fill-rule:nonzero;stroke:none" id="path116"/>
      <path d="m 2284.28,131.914 c -7.89,0 -14.2,-2.578 -18.88,-7.726 -4.71,-5.145 -7.48,-12.266 -8.32,-21.368 h 51.46 c 0,9.395 -2.11,16.594 -6.29,21.594 -4.2,5 -10.17,7.5 -17.97,7.5 z m 4.05,-89.5312 c -14.56,0 -26.02,4.4336 -34.44,13.2891 -8.42,8.8594 -12.62,21.164 -12.62,36.9062 0,15.8669 3.91,28.4649 11.72,37.8129 7.82,9.336 18.3,14.004 31.49,14.004 12.32,0 22.09,-4.055 29.26,-12.168 7.18,-8.106 10.78,-18.809 10.78,-32.102 v -9.4336 h -67.8 c 0.3,-11.5508 3.23,-20.3203 8.75,-26.3086 5.55,-5.9844 13.34,-8.9844 23.4,-8.9844 10.59,0 21.08,2.2188 31.43,6.6524 v -13.293 c -5.28,-2.2734 -10.26,-3.9062 -14.94,-4.8906 -4.71,-0.9883 -10.39,-1.4844 -17.03,-1.4844" style="fill:#ffffff;fill-opacity:1;fill-rule:nonzero;stroke:none" id="path118"/>
      <path d="m 2391.53,144.395 c 4.37,0 8.28,-0.352 11.76,-1.075 l -2.07,-13.828 c -4.07,0.899 -7.66,1.348 -10.77,1.348 -7.96,0 -14.78,-3.235 -20.43,-9.699 -5.66,-6.465 -8.49,-14.52 -8.49,-24.1605 V 44.1797 h -14.9 v 98.4183 h 12.3 l 1.7,-18.223 h 0.72 c 3.65,6.406 8.05,11.336 13.21,14.813 5.13,3.468 10.8,5.207 16.97,5.207" style="fill:#ffffff;fill-opacity:1;fill-rule:nonzero;stroke:none" id="path120"/>
      <path d="m 2433.31,44.1797 h -14.93 v 98.4183 h 14.93 z m -16.18,125.0973 c 0,3.407 0.84,5.907 2.52,7.489 1.68,1.593 3.77,2.382 6.29,2.382 2.39,0 4.46,-0.808 6.19,-2.421 1.74,-1.622 2.6,-4.102 2.6,-7.45 0,-3.359 -0.86,-5.859 -2.6,-7.5 -1.73,-1.652 -3.8,-2.472 -6.19,-2.472 -2.52,0 -4.61,0.82 -6.29,2.472 -1.68,1.641 -2.52,4.141 -2.52,7.5" style="fill:#ffffff;fill-opacity:1;fill-rule:nonzero;stroke:none" id="path122"/>
      <path d="m 2528.95,44.1797 v 63.6723 c 0,8.015 -1.84,14.003 -5.49,17.957 -3.65,3.945 -9.35,5.929 -17.15,5.929 -10.29,0 -17.83,-2.785 -22.61,-8.351 -4.81,-5.574 -7.19,-14.766 -7.19,-27.5784 V 44.1797 h -14.92 v 98.4183 h 12.13 l 2.42,-13.469 h 0.72 c 3.05,4.855 7.34,8.605 12.85,11.269 5.51,2.668 11.64,3.997 18.4,3.997 11.86,0 20.78,-2.852 26.76,-8.575 5.99,-5.715 8.98,-14.863 8.98,-27.433 V 44.1797 h -14.9" style="fill:#ffffff;fill-opacity:1;fill-rule:nonzero;stroke:none" id="path124"/>
      <path d="m 2581.31,111.082 c 0,-6.883 1.96,-12.0976 5.84,-15.625 3.89,-3.5351 9.3,-5.3007 16.25,-5.3007 14.55,0 21.82,7.0585 21.82,21.1917 0,14.785 -7.36,22.187 -22.09,22.187 -6.99,0 -12.38,-1.887 -16.15,-5.664 -3.77,-3.769 -5.67,-9.367 -5.67,-16.789 z m -8.08,-83.4257 c 0,-5.3321 2.24,-9.3672 6.74,-12.1211 4.49,-2.7539 10.91,-4.1289 19.31,-4.1289 12.5,0 21.78,1.8632 27.8,5.6054 6.01,3.75 9.02,8.8164 9.02,15.2227 0,5.332 -1.66,9.0234 -4.94,11.0937 -3.3,2.0625 -9.49,3.0977 -18.6,3.0977 h -17.87 c -6.76,0 -12.03,-1.6211 -15.8,-4.8555 -3.77,-3.2305 -5.66,-7.8711 -5.66,-13.914 z m 78.49,114.9417 v -9.426 l -18.24,-2.156 c 1.68,-2.09 3.19,-4.836 4.49,-8.215 1.33,-3.387 1.98,-7.196 1.98,-11.453 0,-9.641 -3.28,-17.3246 -9.87,-23.0785 -6.6,-5.7422 -15.62,-8.6211 -27.13,-8.6211 -2.93,0 -5.68,0.2422 -8.26,0.7227 -6.35,-3.3594 -9.51,-7.5781 -9.51,-12.668 0,-2.6953 1.09,-4.6758 3.32,-5.9648 2.21,-1.2891 6.02,-1.9336 11.41,-1.9336 h 17.42 c 10.64,0 18.85,-2.2461 24.55,-6.7383 5.72,-4.4844 8.57,-11.0156 8.57,-19.5703 0,-10.8984 -4.35,-19.2109 -13.1,-24.92188 C 2628.6,2.85938 2615.86,0 2599.09,0 c -12.87,0 -22.8,2.39063 -29.77,7.17578 -6.97,4.79692 -10.45,11.56252 -10.45,20.30472 0,5.9843 1.92,11.1601 5.74,15.5273 3.83,4.375 9.22,7.332 16.16,8.8945 -2.5,1.1329 -4.61,2.9024 -6.33,5.293 -1.7,2.3945 -2.56,5.1875 -2.56,8.3594 0,3.5859 0.96,6.7305 2.87,9.4258 1.92,2.6953 4.94,5.3008 9.08,7.8125 -5.09,2.0976 -9.24,5.6523 -12.44,10.6836 -3.2,5.0273 -4.8,10.7814 -4.8,17.2464 0,10.769 3.22,19.082 9.7,24.922 6.47,5.828 15.63,8.75 27.46,8.75 5.16,0 9.81,-0.598 13.93,-1.797 h 34.04" style="fill:#ffffff;fill-opacity:1;fill-rule:nonzero;stroke:none" id="path126"/>
      <path d="m 385.043,88.707 h 3.059 c 2.054,0 3.828,0.2539 3.828,2.7578 0,2.1915 -2.008,2.5782 -3.782,2.5782 h -3.105 z m -3.48,7.9766 h 6.957 c 4.464,0 6.871,-1.5898 6.871,-5.4883 0,-3.1719 -1.805,-4.7305 -4.864,-5.0273 l 5.016,-8.1797 h -3.563 l -4.847,8.043 h -2.09 v -8.043 h -3.48 z m 18.828,-9.3984 c 0,7.6914 -5.586,13.2618 -12.493,13.2618 -6.867,0 -12.418,-5.5704 -12.418,-13.2618 0,-7.7266 5.551,-13.2774 12.418,-13.2774 6.907,0 12.493,5.5508 12.493,13.2774 m -28.961,0 c 0,9.0625 7.41,16.4688 16.468,16.4688 9.114,0 16.489,-7.4063 16.489,-16.4688 0,-9.125 -7.375,-16.4688 -16.489,-16.4688 -9.058,0 -16.468,7.3438 -16.468,16.4688" style="fill:#ffffff;fill-opacity:1;fill-rule:nonzero;stroke:none" id="path128"/>
      <path d="m 528.48,365.082 h -56.015 l -1.352,-2.777 -38.418,-79.942 -38.511,79.965 -1.336,2.754 h -3.067 -51.16 -4.855 v -4.879 -27.269 -4.871 h 4.855 8.75 v -114.45 h -9.488 -4.875 v -4.886 -27.243 -4.894 h 4.875 57.488 4.867 v 4.894 27.243 4.886 h -4.867 -9.941 v 81.219 l 42.922,-88.527 4.382,-9.012 4.407,9.012 43.371,88.742 v -81.434 h -9.473 -4.891 v -4.886 -27.243 -4.894 h 4.891 57.441 4.899 v 4.894 27.243 4.886 h -4.899 -9.886 v 114.45 h 9.886 4.899 v 4.871 27.269 4.879 h -4.899" style="fill:#ffffff;fill-opacity:1;fill-rule:nonzero;stroke:none" id="path130"/>
      <path d="M 113.98,269.863 H 86.2031 l 13.8749,32.129 z m 80.77,-56.144 h -15.27 l -49.738,114.972 h 4.762 4.867 v 4.879 27.289 4.883 h -4.867 -70.2188 -4.8907 v -4.883 -27.289 -4.879 h 4.8907 6.1054 L 20.6719,213.719 H 4.88672 0 v -4.871 -27.266 -4.898 h 4.88672 62.71878 4.875 v 4.898 27.266 4.871 h -4.875 -5.6836 l 8.2617,19.121 h 59.8124 l 8.234,-19.121 h -6.226 -4.891 v -4.871 -27.266 -4.898 h 4.891 62.746 4.891 v 4.898 27.266 4.871 h -4.891" style="fill:#ffffff;fill-opacity:1;fill-rule:nonzero;stroke:none" id="path132"/>
      <path d="M 467.672,508.789 H 58.8086 V 389.91 h 80.7934 v 5.578 40.008 h 86.046 V 151.621 h -40.039 -5.558 v -5.59 -69.6482 -5.5664 h 5.558 160.813 5.586 v 5.5664 69.6482 5.59 h -5.586 -39.977 v 283.875 h 85.504 v -39.5 -5.562 h 5.606 70.117 5.558 v 5.562 107.223 5.57 h -5.558" style="fill:#ffffff;fill-opacity:1;fill-rule:nonzero;stroke:none" id="path134"/>
      <path d="m 318.383,118.457 17.027,17.555 V 87.9141 l -17.027,16.2739 v 14.269" style="fill:#b2b1b1;fill-opacity:1;fill-rule:nonzero;stroke:none" id="path136"/>
      <path d="m 289.996,134.723 -17.051,-16.785 v 351.035 l 17.051,-16.996 V 134.723" style="fill:#b2b1b1;fill-opacity:1;fill-rule:nonzero;stroke:none" id="path138"/>
      <path d="M 92.9727,475.141 75.4414,492.188 H 448.125 L 426.09,475.141 H 92.9727" style="fill:#b2b1b1;fill-opacity:1;fill-rule:nonzero;stroke:none" id="path140"/>
      <path d="m 457.164,406.02 -17.047,16.261 v 43.352 l 17.047,17.527 v -77.14" style="fill:#b2b1b1;fill-opacity:1;fill-rule:nonzero;stroke:none" id="path142"/>
    </g>
  </g>
</svg>